<svg xmlns="http://www.w3.org/2000/svg" style="display:none">
    <symbol id="costIncrease" viewBox="0 0 32 32">
        <g stroke="none" stroke-width="1" fill="none" fill-rule="evenodd">
            <circle id="Oval" fill="#1589EE" cx="16" cy="16" r="14"></circle>
            <path d="M20.5934822,27.0891793 C20.0738603,27.0600986 19.6761981,26.6152873 19.7052787,26.0956654 C19.7141732,25.9367362 19.763182,25.7826499 19.8477324,25.6477839 L19.9368472,25.5056371 C21.1843923,24.9883273 22.3180541,24.2281425 23.2730983,23.2730983 C25.190151,21.3560456 26.2857143,18.7658431 26.2857143,16 C26.2857143,10.3193569 21.6806431,5.71428571 16,5.71428571 C10.3193569,5.71428571 5.71428571,10.3193569 5.71428571,16 C5.71428571,18.7658431 6.80984898,21.3560456 8.72690168,23.2730983 C9.68194586,24.2281425 10.8156077,24.9883273 12.0631528,25.5056371 L12.1522676,25.6477839 C12.4287064,26.0887308 12.2953462,26.6702869 11.8543993,26.9467256 C11.7195332,27.031276 11.565447,27.0802848 11.4065178,27.0891793 C9.95043656,26.4853974 8.62819952,25.5987623 7.51471863,24.4852814 C5.27936201,22.2499248 4,19.2251732 4,16 C4,9.372583 9.372583,4 16,4 C22.627417,4 28,9.372583 28,16 C28,19.2251732 26.720638,22.2499248 24.4852814,24.4852814 C23.3718005,25.5987623 22.0495634,26.4853974 20.5934822,27.0891793 Z M16.8571429,15.1175758 L16.8571429,26.2857143 C16.8571429,26.7591012 16.4733869,27.1428571 16,27.1428571 C15.5266131,27.1428571 15.1428571,26.7591012 15.1428571,26.2857143 L15.1428571,15.1072232 L11.7521831,18.4978973 L10.54,17.2857143 L15.9948237,11.8308905 L21.4496475,17.2857143 L20.2374644,18.4978973 L16.8571429,15.1175758 Z" id="Combined-Shape" fill="#FFFFFF"></path>
        </g>
    </symbol>
    <symbol id="incomplete" viewBox="0 0 24 24">
        <g stroke="none" stroke-width="1" fill="none" fill-rule="evenodd">
            <rect fill="#FF2953" x="0" y="0" width="24" height="24" rx="4"></rect>
            <g transform="translate(5.000000, 5.000000)" fill="#ffffff">
                <path d="M7,0.636363636 C3.5,0.636363636 0.636363636,3.5 0.636363636,7 C0.636363636,10.5 3.5,13.3636364 7,13.3636364 C10.5,13.3636364 13.3636364,10.5 13.3636364,7 C13.3636364,3.5 10.5,0.636363636 7,0.636363636 Z M2.22727273,7 C2.22727273,4.375 4.375,2.22727273 7,2.22727273 C8.03409091,2.22727273 8.98863636,2.54545455 9.75757576,3.10227273 L3.10227273,9.75757576 C2.54545455,8.98863636 2.22727273,8.03409091 2.22727273,7 L2.22727273,7 Z M7,11.7727273 C5.96590909,11.7727273 5.01136364,11.4545455 4.24242424,10.8977273 L10.8977273,4.24242424 C11.4545455,5.01136364 11.7727273,5.96590909 11.7727273,7 C11.7727273,9.625 9.625,11.7727273 7,11.7727273 Z"></path>
                <path d="M7,0.636363636 C3.5,0.636363636 0.636363636,3.5 0.636363636,7 C0.636363636,10.5 3.5,13.3636364 7,13.3636364 C10.5,13.3636364 13.3636364,10.5 13.3636364,7 C13.3636364,3.5 10.5,0.636363636 7,0.636363636 Z M2.22727273,7 C2.22727273,4.375 4.375,2.22727273 7,2.22727273 C8.03409091,2.22727273 8.98863636,2.54545455 9.75757576,3.10227273 L3.10227273,9.75757576 C2.54545455,8.98863636 2.22727273,8.03409091 2.22727273,7 L2.22727273,7 Z M7,11.7727273 C5.96590909,11.7727273 5.01136364,11.4545455 4.24242424,10.8977273 L10.8977273,4.24242424 C11.4545455,5.01136364 11.7727273,5.96590909 11.7727273,7 C11.7727273,9.625 9.625,11.7727273 7,11.7727273 Z"></path>
            </g>
        </g>
    </symbol>
    <symbol id="notice" viewBox="0 0 24 24">
        <g stroke="none" stroke-width="1" fill="none" fill-rule="evenodd">
            <rect fill="#94AEC6" x="0" y="0" width="24" height="24" rx="4"></rect>
            <g transform="translate(5.000000, 5.000000)" fill="#FFFFFF" fill-rule="nonzero">
                <path d="M6.71474806,8.28017012 C6.88670206,8.45879851 7.11597407,8.45879851 7.28792808,8.28017012 L13.2490004,2.50451887 C13.3636364,2.26634769 13.3063184,1.90909091 12.9050923,1.90909091 L1.0975838,1.96863371 C0.753675779,1.96863371 0.467085766,2.26634769 0.753675779,2.50451887 L6.71474806,8.28017012 Z M13.3636364,4.76714514 C13.3636364,4.46943115 13.0197283,4.29080276 12.8477743,4.52897395 L8.14769812,8.99468368 C7.80379011,9.29239766 7.40256409,9.47102605 7.00133807,9.47102605 C6.60011205,9.47102605 6.19888603,9.29239766 5.85497802,8.99468368 L1.2122198,4.52897395 C0.98294779,4.29080276 0.696357777,4.46943115 0.696357777,4.76714514 C0.639039774,4.64805954 0.639039774,11.0191388 0.639039774,11.0191388 C0.639039774,11.6145667 1.1549018,12.0909091 1.72808182,12.0909091 L12.2745943,12.0909091 C12.8477743,12.0909091 13.3636364,11.6145667 13.3636364,11.0191388 L13.3636364,4.76714514 Z" id="Shape"></path>
            </g>
        </g>
    </symbol>
    <symbol id="phone" viewBox="0 0 24 24">
        <g stroke="none" stroke-width="1" fill="none" fill-rule="evenodd">
            <g stroke-width="1" fill-rule="evenodd">
                <rect x="0" y="0" width="24" height="24" rx="4" fill="#40C3CD"></rect>
            </g>
            <g transform="translate(5.000000, 5.000000)" fill="#FFFFFF" fill-rule="nonzero">
                <path d="M11.3796791,0.636363636 L3.74331551,0.636363636 C3.06951872,0.636363636 2.50802139,1.26699427 2.50802139,1.8976249 L2.50802139,2.35626536 L2.11497326,2.35626536 C1.6657754,2.35626536 1.27272727,2.7002457 1.27272727,3.21621622 C1.27272727,3.73218673 1.6657754,4.01883702 2.11497326,4.01883702 L2.50802139,4.01883702 L2.50802139,6.14004914 L2.11497326,6.14004914 C1.6657754,6.14004914 1.27272727,6.54135954 1.27272727,7 C1.27272727,7.45864046 1.6657754,7.85995086 2.11497326,7.85995086 L2.50802139,7.85995086 L2.50802139,9.98116298 L2.11497326,9.98116298 C1.6657754,9.98116298 1.27272727,10.3251433 1.27272727,10.7837838 C1.27272727,11.2997543 1.6657754,11.6437346 2.11497326,11.6437346 L2.50802139,11.6437346 L2.50802139,12.1023751 C2.50802139,12.7330057 3.06951872,13.3636364 3.74331551,13.3636364 L11.3796791,13.3636364 C12.0534759,13.3636364 12.7272727,12.7330057 12.7272727,12.045045 L12.7272727,1.84029484 C12.7272727,1.15233415 12.0534759,0.636363636 11.3796791,0.636363636 Z M10.7058824,9.17854218 L10.0882353,9.75184275 C9.97593583,9.92383292 9.80748663,9.98116298 9.63903743,9.98116298 C8.29144385,9.86650287 7.05614973,9.23587224 6.15775401,8.31859132 C5.25935829,7.4013104 4.64171123,6.08271908 4.5855615,4.64946765 C4.5855615,4.47747748 4.64171123,4.30548731 4.7540107,4.19082719 L5.31550802,3.61752662 C5.59625668,3.33087633 5.98930481,3.33087633 6.27005348,3.67485667 L6.77540107,4.36281736 C6.94385027,4.59213759 6.94385027,4.93611794 6.77540107,5.16543817 L6.32620321,5.7960688 C6.32620321,5.91072891 6.32620321,6.02538903 6.38235294,6.08271908 L7.3368984,7.17199017 L8.34759358,8.14660115 C8.40374332,8.2039312 8.51604278,8.2039312 8.62834225,8.14660115 L9.2459893,7.68796069 C9.47058824,7.51597052 9.7513369,7.51597052 10.0320856,7.68796069 L10.6497326,8.26126126 C10.9304813,8.43325143 10.9304813,8.89189189 10.7058824,9.17854218 L10.7058824,9.17854218 Z" id="Shape"></path>
            </g>
        </g>
    </symbol>
    <symbol id="phone2" viewBox="0 0 34 34">
        <g stroke-width="1" fill="#DDDBDA" fill-rule="evenodd">
            <path d="M15.5151515,20.9552801 L13.5039282,19.2940559 C13.0011223,18.9329202 12.3546577,18.9329202 11.9236813,19.2940559 L10.1997755,20.5219173 C9.98428732,20.7385987 9.6969697,20.6663716 9.48148148,20.4496902 L6.8956229,18.1384217 L4.59708193,15.5382446 C4.38159371,15.3215632 4.38159371,15.1048818 4.52525253,14.8159732 L5.74635241,13.0825219 C6.10549944,12.649159 6.10549944,11.9991148 5.74635241,11.4935248 L4.09427609,9.47116485 C3.59147026,8.89334773 2.7295174,8.82112059 2.15488215,9.39893771 L0.430976431,11.1323891 C0.14365881,11.3490705 0,11.7824333 0,12.143569 C0.215488215,15.5382446 1.72390572,18.7162388 3.95061728,21.0275073 C6.17732884,23.3387758 9.40965208,24.7833186 12.7856341,25 C13.2166105,25 13.5757576,24.8555457 13.7912458,24.5666372 L15.5151515,22.8331858 C16.1616162,22.3275958 16.1616162,21.388643 15.5151515,20.9552801 Z" id="Shape"></path>
        </g>
    </symbol>
    <symbol id="email" viewBox="0 0 20 32">
        <g stroke-width="1" fill="#DDDBDA" fill-rule="evenodd">
            <path d="M7.67375331,17.5392781 C7.87440113,17.7091295 8.17537285,17.7091295 8.37602066,17.5392781 L15.933755,11.5944798 C16.0675202,11.3680113 16.0340789,11 15.499018,11 L0.550755951,11.0283086 C0.149460325,11.0283086 -0.184952696,11.3397028 0.116019023,11.6227884 L7.67375331,17.5392781 L7.67375331,17.5392781 Z M16,14.0170733 C16,13.7305717 15.6,13.5586707 15.3333333,13.7592218 L9.43333333,18.4291983 C9.03333333,18.7443501 8.53333333,18.9162511 8,18.9162511 C7.46666667,18.9162511 6.96666667,18.7443501 6.56666667,18.4578485 L0.7,13.7592218 C0.433333333,13.5586707 0.0333333333,13.7019215 0.0333333333,14.0170733 C0,13.9311228 0,20.5206602 0,20.5206602 C0,21.1509637 0.6,21.6666667 1.33333333,21.6666667 L14.6666667,21.6666667 C15.4,21.6666667 16,21.1509637 16,20.5206602 L16,14.0170733 L16,14.0170733 Z"></path>
        </g>
    </symbol>
    <symbol id="home" viewBox="0 0 34 34">
        <g stroke-width="1" fill="#DDDBDA" fill-rule="evenodd">
            <path d="M15.6798231,17.3333333 L14.0119006,17.3333333 L14.0119006,24.6666667 C14.0119006,24.8666667 13.8784668,25 13.6783161,25 L10.3424711,25 C10.1423204,25 10.0088866,24.8666667 10.0088866,24.6666667 L10.0088866,19 L6.0058726,19 L6.0058726,24.6666667 C6.0058726,24.8666667 5.8724388,25 5.6722881,25 L2.33644312,25 C2.13629242,25 2.00285862,24.8666667 2.00285862,24.6666667 L2.00285862,17.3333333 L0.334936128,17.3333333 C0.201502329,17.3333333 0.0680685292,17.2666667 0.0347100794,17.1333333 C-0.0320068203,17 0.00135162951,16.8666667 0.101426979,16.7666667 L7.77387044,9.1 C7.90730424,8.96666667 8.14081339,8.96666667 8.24088874,9.1 L15.9133322,16.7666667 C16.0134076,16.8666667 16.0134076,17 15.9800491,17.1333333 C15.9466907,17.2666667 15.8132569,17.3333333 15.6798231,17.3333333 L15.6798231,17.3333333 Z" id="Mask"></path>
        </g>
    </symbol>
    <symbol id="payment" viewBox="0 0 24 24">
        <g stroke="none" stroke-width="1" fill="none" fill-rule="evenodd">
            <rect width="24" height="24" rx="4" fill="#4BC076"></rect>
            <g transform="translate(5.000000, 5.000000)" fill="#FFFFFF">
                <path d="M7.9486653,12.1324806 L7.9486653,13.3636364 L6.33358223,13.3636364 L6.33358223,12.1964367 C5.64364038,12.1537991 5.04517707,12.0365473 4.53817435,11.8446779 C4.03117163,11.6528085 3.57905743,11.3916569 3.18181818,11.0612152 L4.15400411,9.84604842 C4.55124335,10.1231931 4.94847664,10.3257189 5.34571589,10.4536318 C5.74295513,10.5815447 6.19768271,10.6455002 6.70991226,10.6455002 C8.14206428,10.6455002 8.85812955,10.1551747 8.85812955,9.17450891 C8.85812955,8.85472659 8.784955,8.60156938 8.6386037,8.41502969 C8.49225239,8.22849001 8.26750198,8.07393087 7.96434572,7.95134765 C7.66118945,7.82876442 7.22214213,7.6981886 6.64719059,7.55961626 C5.5600095,7.28247159 4.76554292,6.92272187 4.26376703,6.48035633 C3.76199114,6.03799078 3.51110696,5.4117598 3.51110696,4.60164459 C3.51110696,3.83416702 3.76983127,3.20793603 4.28728766,2.72293285 C4.80474405,2.23792966 5.48683542,1.93680582 6.33358223,1.81955231 L6.33358223,0.636363636 L7.9486653,0.636363636 L7.9486653,1.80356327 C9.0044854,1.91015738 9.94530108,2.25658303 10.7711406,2.84285062 L9.89303715,4.05801736 C9.45398324,3.8021915 9.03061619,3.60766018 8.62292328,3.47441754 C8.21523037,3.34117491 7.75527604,3.27455459 7.24304648,3.27455459 C6.03042141,3.27455459 5.42411798,3.68493575 5.42411798,4.50571037 C5.42411798,4.79351446 5.4894524,5.02002354 5.6201232,5.1852444 C5.75079401,5.35046527 5.95463741,5.48903553 6.23165951,5.60095934 C6.50868162,5.71288315 6.92420854,5.83279973 7.47825275,5.96071265 C8.58634118,6.2058791 9.4200084,6.57095844 9.97927945,7.05596163 C10.5385505,7.54096481 10.8181818,8.2311513 10.8181818,9.1265418 C10.8181818,9.97929466 10.5516174,10.6588219 10.0184805,11.1651439 C9.48534361,11.6714659 8.79541211,11.9939082 7.9486653,12.1324806 Z" id="$"></path>
            </g>
        </g>
    </symbol>
    <symbol id="bill" viewBox="0 0 31 42">
        <g stroke="none" stroke-width="1" fill="none" fill-rule="evenodd">
            <g fill="#4BC076">
                <path d="M2.58333333,2.5950961 L2.58333333,36.002883 L4.84375,33.9486679 L8.39583333,37.1767202 L11.9479167,33.9486679 L15.5,37.1767202 L19.0520833,33.9486679 L22.6041667,37.1767202 L26.15625,33.9486679 L28.4166667,36.002883 L28.4166667,2.5950961 L2.58333333,2.5950961 Z M1.42108547e-14,41.85 L1.42108547e-14,-4.97379915e-14 L31,-4.97379915e-14 L31,41.85 L26.15625,37.4481106 L22.6041667,40.6761628 L19.0520833,37.4481106 L15.5,40.6761628 L11.9479167,37.4481106 L8.39583333,40.6761628 L4.84375,37.4481106 L1.42108547e-14,41.85 Z M7.01190476,26.599735 L7.01190476,24.0046389 L16.7351804,24.0046389 L16.7351804,26.599735 L7.01190476,26.599735 Z M7,30.5950961 L7,28 L16.7232757,28 L16.7232757,30.5950961 L7,30.5950961 Z M7,30.5950961 L7,28 L16.7232757,28 L16.7232757,30.5950961 L7,30.5950961 Z M19,26.5950961 L19,24 L24.1666667,24 L24.1666667,26.5950961 L19,26.5950961 Z M19,30.5950961 L19,28 L24.1666667,28 L24.1666667,30.5950961 L19,30.5950961 Z" fill-rule="nonzero"></path>
                <path d="M16.6180698,18.6457286 L16.6180698,20 L14.7145791,20 L14.7145791,18.7160804 C13.9014333,18.669179 13.1961016,18.5402021 12.5985626,18.3291457 C12.0010237,18.1180894 11.4681748,17.8308226 11,17.4673367 L12.1457906,16.1306533 C12.6139654,16.4355124 13.0821332,16.6582908 13.550308,16.798995 C14.0184828,16.9396992 14.5544118,17.0100503 15.1581109,17.0100503 C16.8460043,17.0100503 17.6899384,16.4706922 17.6899384,15.3919598 C17.6899384,15.0401992 17.603697,14.7617263 17.4312115,14.5565327 C17.258726,14.351339 16.9938416,14.181324 16.6365503,14.0464824 C16.279259,13.9116409 15.7618104,13.7680075 15.0841889,13.6155779 C13.8028683,13.3107187 12.8665327,12.9149941 12.275154,12.428392 C11.6837753,11.9417899 11.3880903,11.2529358 11.3880903,10.361809 C11.3880903,9.51758372 11.6930154,8.82872964 12.3028747,8.29522613 C12.9127341,7.76172263 13.7166275,7.43048641 14.7145791,7.30150754 L14.7145791,6 L16.6180698,6 L16.6180698,7.2839196 C17.8624292,7.40117312 18.9712477,7.78224133 19.9445585,8.42713568 L18.9096509,9.7638191 C18.3921945,9.48241065 17.8932262,9.26842619 17.412731,9.1218593 C16.9322358,8.9752924 16.3901468,8.90201005 15.7864476,8.90201005 C14.3572824,8.90201005 13.6427105,9.35342932 13.6427105,10.2562814 C13.6427105,10.5728659 13.7197118,10.8220259 13.8737166,11.0037688 C14.0277215,11.1855118 14.2679655,11.3379391 14.5944559,11.4610553 C14.9209462,11.5841715 15.4106744,11.7160797 16.063655,11.8567839 C17.3696164,12.126467 18.3521528,12.5280543 19.0112936,13.0615578 C19.6704345,13.5950613 20,14.3542664 20,15.339196 C20,16.2772241 19.6858348,17.0247041 19.0574949,17.5816583 C18.429155,18.1386125 17.6160214,18.4932991 16.6180698,18.6457286 Z"  fill-rule="evenodd"></path>
            </g>
        </g>
    </symbol>
    <symbol id="snowflake" viewBox="0 0 32 32">
        <g fill="#1589EE">
            <path d="M9.80852486,13.7195788 L4.74452282,15.0764741 L4.22688473,13.1446224 L7.35903512,12.3053652 L4,10.3660254 L5,8.6339746 L8.35903512,10.5733144 L7.51977795,7.44116404 L9.4516296,6.92352595 L10.8085249,11.987528 L14.7583302,14.2679492 L14.7583302,9.70710678 L11.0512235,6 L12.465437,4.58578644 L14.7583302,6.87867966 L14.7583302,3 L16.7583302,3 L16.7583302,6.87867966 L19.0512235,4.58578644 L20.465437,6 L16.7583302,9.70710678 L16.7583302,14.2679492 L20.7081356,11.987528 L22.0650309,6.92352595 L23.9968825,7.44116404 L23.1576254,10.5733144 L26.5166605,8.6339746 L27.5166605,10.3660254 L24.1576254,12.3053652 L27.2897758,13.1446224 L26.7721377,15.0764741 L21.7081356,13.7195788 L17.7583302,16 L21.7081356,18.2804212 L26.7721377,16.9235259 L27.2897758,18.8553776 L24.1576254,19.6946348 L27.5166605,21.6339746 L26.5166605,23.3660254 L23.1576254,21.4266856 L23.9968825,24.558836 L22.0650309,25.0764741 L20.7081356,20.012472 L16.7583302,17.7320508 L16.7583302,22.2928932 L20.465437,26 L19.0512235,27.4142136 L16.7583302,25.1213203 L16.7583302,29 L14.7583302,29 L14.7583302,25.1213203 L12.465437,27.4142136 L11.0512235,26 L14.7583302,22.2928932 L14.7583302,17.7320508 L10.8085249,20.012472 L9.4516296,25.0764741 L7.51977795,24.558836 L8.35903512,21.4266856 L5,23.3660254 L4,21.6339746 L7.35903512,19.6946348 L4.22688473,18.8553776 L4.74452282,16.9235259 L9.80852486,18.2804212 L13.7583302,16 L9.80852486,13.7195788 Z"></path>
        </g>
    </symbol>
    <symbol id="fan" viewBox="0 0 32 32">
        <g fill="#1589EE">
            <path d="M16,16 C16,12.1818182 18.9545455,9 22.5,9 C26.0454545,9 29,12.1818182 29,16 L16,16 L16,16 Z M16,16 C16,19.8181818 13.0454545,23 9.5,23 C5.95454545,23 3,19.8181818 3,16 L16,16 L16,16 Z M16,16 C12.1818182,16 9,13.0454545 9,9.5 C9,5.95454545 12.1818182,3 16,3 L16,16 L16,16 Z M16,16 C19.8181818,16 23,18.9545455 23,22.5 C23,26.0454545 19.8181818,29 16,29 L16,16 L16,16 Z"></path>
        </g>
    </symbol>
    <symbol id="dollar" viewBox="0 0 18 18">
        <g>
            <circle id="Oval" fill="#F0C961" fill-rule="nonzero" cx="9" cy="9" r="9"></circle>
            <path d="M9.74537988,13.0326633 L9.74537988,14 L8.47638604,14 L8.47638604,13.0829146 C7.93428887,13.0494136 7.4640677,12.9572872 7.06570842,12.8065327 C6.66734914,12.6557781 6.31211655,12.4505876 6,12.1909548 L6.76386037,11.2361809 C7.07597692,11.4539374 7.38808879,11.6130648 7.70020534,11.7135678 C8.01232189,11.8140709 8.36960784,11.8643216 8.77207392,11.8643216 C9.89733622,11.8643216 10.4599589,11.4790658 10.4599589,10.7085427 C10.4599589,10.4572852 10.4024646,10.2583759 10.2874743,10.111809 C10.172484,9.96524215 9.99589441,9.84380283 9.75770021,9.74748744 C9.519506,9.65117205 9.17454025,9.54857676 8.72279261,9.43969849 C7.86857889,9.22194196 7.24435515,8.93928147 6.85010267,8.59170854 C6.45585018,8.24413562 6.2587269,7.75209698 6.2587269,7.11557789 C6.2587269,6.5125598 6.46201029,6.02052117 6.86858316,5.63944724 C7.27515604,5.2583733 7.81108497,5.02177601 8.47638604,4.92964824 L8.47638604,4 L9.74537988,4 L9.74537988,4.91708543 C10.5749528,5.00083794 11.3141651,5.27302952 11.963039,5.73366834 L11.2731006,6.68844221 C10.9281297,6.48743618 10.5954841,6.33459014 10.275154,6.2298995 C9.95482386,6.12520886 9.59343117,6.07286432 9.19096509,6.07286432 C8.23818825,6.07286432 7.76180698,6.39530666 7.76180698,7.04020101 C7.76180698,7.26633279 7.81314117,7.44430421 7.91581109,7.5741206 C8.01848101,7.703937 8.17864368,7.81281363 8.3963039,7.90075377 C8.61396413,7.98869391 8.94044957,8.08291407 9.37577002,8.18341709 C10.2464109,8.37604786 10.9014352,8.66289592 11.3408624,9.04396985 C11.7802897,9.42504378 12,9.96733317 12,10.6708543 C12,11.3408744 11.7905565,11.8747886 11.3716632,12.2726131 C10.95277,12.6704375 10.4106809,12.9237851 9.74537988,13.0326633 Z" id="$" fill="#FFFFFF"></path>
        </g>
    </symbol>
    <symbol id="bulb" viewBox="0 0 31 44">
        <g fill="#1589EE">
            <path d="M14.8917008,0.0113143305 C6.91412312,0.308069415 0.380327774,6.60152608 0.0166114871,14.3396471 C-0.134013402,17.5462643 0.742029012,20.6477704 2.55003144,23.3092773 C3.20391474,24.2714091 3.85175289,26.2015394 4.37616931,28.7427798 C4.5640726,29.655045 5.0486918,30.450466 5.71668044,31.0469095 C5.16354958,31.5709975 4.81847249,32.3013964 4.81847249,33.1095284 C4.81847249,33.8467717 5.10712822,34.5180151 5.57764208,35.0284143 C5.11972227,35.536369 4.8396305,36.1988124 4.8396305,36.9248112 C4.8396305,38.4980532 6.14387076,39.77894 7.75792476,39.8077844 C7.86069224,42.1358696 9.83896628,44 12.2625661,44 L18.737925,44 C21.1615248,44 23.1392951,42.1358696 23.2430701,39.8077844 C24.8571241,39.77894 26.1613644,38.4980532 26.1613644,36.9248112 C26.1613644,36.187568 25.8727086,35.5163246 25.4021948,35.0059254 C25.8601146,34.4979707 26.1402063,33.8355273 26.1402063,33.1095284 C26.1402063,32.3209519 25.8122572,31.6061975 25.2822994,31.0850427 C25.9603632,30.4959326 26.4570727,29.7063783 26.6550513,28.7990019 C27.2353853,26.141895 27.9220131,24.118876 28.5879867,23.1019888 C30.1657698,20.6947037 31,17.9075526 31,15.0421793 C31.0005038,6.5516595 23.7327269,-0.317218481 14.8917008,0.0113143305 Z M18.737925,42.0444476 L12.2625661,42.0444476 C10.9507694,42.0444476 9.87171082,41.0588491 9.77045463,39.8107178 L21.2300365,39.8107178 C21.1287803,41.0588491 20.0497217,42.0444476 18.737925,42.0444476 Z M23.18816,37.8551653 L22.9423241,37.8551653 L8.05867077,37.8551653 L7.81283483,37.8551653 C7.28438832,37.8551653 6.85467918,37.4376549 6.85467918,36.9253001 C6.85467918,36.4129454 7.28489208,35.9954349 7.81283483,35.9954349 L23.1675058,35.9954349 L23.1886638,35.9954349 C23.7171103,35.9954349 24.1468194,36.4124565 24.1468194,36.9253001 C24.1468194,37.4381438 23.7166065,37.8551653 23.18816,37.8551653 Z M23.167002,32.1796632 C23.6954485,32.1796632 24.1251577,32.5966848 24.1251577,33.1095284 C24.1251577,33.622372 23.6954485,34.0393936 23.167002,34.0393936 L7.81233107,34.0393936 L7.79117306,34.0393936 C7.26272654,34.0393936 6.83301741,33.6218832 6.83301741,33.1095284 C6.83301741,32.5971737 7.26272654,32.1796632 7.79117306,32.1796632 L8.68383962,32.1796632 L22.3589675,32.1796632 L23.167002,32.1796632 Z M26.8877894,22.0528349 C26.0721985,23.2970551 25.3306605,25.4305628 24.6838299,28.3937137 C24.4526031,29.454112 23.4748007,30.2241108 22.3589675,30.2241108 L18.4784875,30.2241108 L12.5220036,30.2241108 L8.68434339,30.2241108 C7.55591613,30.2241108 6.57458742,29.4399342 6.35192454,28.3590026 C5.76201904,25.495585 5.04919557,23.4344327 4.23259709,22.2327457 C2.66035536,19.9183494 1.89866695,17.219687 2.02964512,14.4286248 C2.34600776,7.69810212 8.02945257,2.22353304 14.9687765,1.96540011 C15.1466045,1.95855568 15.323425,1.95562235 15.5002455,1.95562235 C22.9357752,1.95562235 28.9854551,7.8261908 28.9854551,15.0426682 C28.9854551,17.5355087 28.2600376,19.959416 26.8877894,22.0528349 Z" id="Shape"></path>
        </g>
    </symbol>
    <symbol id="bulb2" viewBox="0 0 31 44">
        <g fill="#1589EE">
            <path d="M13.4505685,0.010285755 C6.24501443,0.280063104 0.34352186,6.00138735 0.0150039239,13.0360428 C-0.121044363,15.9511493 0.670219753,18.7707004 2.3032542,21.1902521 C2.89385847,22.0649174 3.47900261,23.8195813 3.95266905,26.1297998 C4.12238815,26.9591318 4.56010873,27.6822418 5.1634533,28.2244632 C4.66385123,28.7009068 4.3521687,29.3649058 4.3521687,30.0995713 C4.3521687,30.7697924 4.61289,31.3800137 5.03787027,31.844013 C4.62426528,32.30579 4.37127917,32.9080113 4.37127917,33.5680102 C4.37127917,34.9982302 5.54930262,36.1626728 7.00715784,36.1888949 C7.09998009,38.305336 8.88680825,40 11.0758661,40 L16.9245774,40 C19.1136353,40 20.9000085,38.305336 20.9937407,36.1888949 C22.451596,36.1626728 23.6296194,34.9982302 23.6296194,33.5680102 C23.6296194,32.8977891 23.3688981,32.2875678 22.9439179,31.8235685 C23.3575228,31.3617915 23.610509,30.7595702 23.610509,30.0995713 C23.610509,29.3826835 23.3142968,28.7329068 22.8356252,28.2591298 C23.44807,27.7235751 23.8967109,27.0057984 24.0755302,26.1809108 C24.5997029,23.7653591 25.2198828,21.9262509 25.8214074,21.001808 C27.2465018,18.813367 28,16.2795932 28,13.6747085 C28.000455,5.95605409 21.4360114,-0.288380437 13.4505685,0.010285755 Z M16.9245774,38.222225 L11.0758661,38.222225 C9.89101751,38.222225 8.91638397,37.3262265 8.82492676,36.1915616 L19.1755168,36.1915616 C19.0840596,37.3262265 18.1094261,38.222225 16.9245774,38.222225 Z M20.9441445,34.4137867 L20.7220992,34.4137867 L7.27879941,34.4137867 L7.05675404,34.4137867 C6.57944751,34.4137867 6.19132313,34.0342317 6.19132313,33.5684547 C6.19132313,33.1026776 6.57990252,32.7231227 7.05675404,32.7231227 L20.9254891,32.7231227 L20.9445996,32.7231227 C21.4219061,32.7231227 21.8100305,33.1022332 21.8100305,33.5684547 C21.8100305,34.0346761 21.4214511,34.4137867 20.9441445,34.4137867 Z M20.9250341,29.2542393 C21.4023406,29.2542393 21.790465,29.6333498 21.790465,30.0995713 C21.790465,30.5657928 21.4023406,30.9449033 20.9250341,30.9449033 L7.05629903,30.9449033 L7.03718857,30.9449033 C6.55988204,30.9449033 6.17175766,30.5653483 6.17175766,30.0995713 C6.17175766,29.6337942 6.55988204,29.2542393 7.03718857,29.2542393 L7.84346805,29.2542393 L20.1951964,29.2542393 L20.9250341,29.2542393 Z M24.2857453,20.0480317 C23.5490825,21.179141 22.8793063,23.1186935 22.2950722,25.812467 C22.0862221,26.7764655 21.2030458,27.4764643 20.1951964,27.4764643 L16.6902468,27.4764643 L11.3101968,27.4764643 L7.84392306,27.4764643 C6.82469844,27.4764643 5.93833702,26.7635766 5.73722216,25.7809115 C5.20440429,23.1778045 4.56056374,21.3040297 3.82299092,20.211587 C2.40290161,18.1075903 1.71492499,15.6542609 1.83322785,13.1169316 C2.11897475,6.99827465 7.25240877,2.02139367 13.5201852,1.78672738 C13.6808041,1.78050516 13.8405129,1.7778385 14.0002218,1.7778385 C20.716184,1.7778385 26.180411,7.11471891 26.180411,13.6751529 C26.180411,15.9413716 25.5251952,18.1449236 24.2857453,20.0480317 Z"></path>
        </g>
    </symbol>
    <symbol id="electric" viewBox="0 0 28 40">
        <g fill="#1589EE">
            <path d="M5.31565197,39.9980266 C5.10260567,39.9852793 4.88724364,39.9103903 4.69619668,39.7726323 C4.22494751,39.4316859 4.03390055,38.8009354 4.23999969,38.2701981 L9.92046266,23.4375096 L2.15816675,23.3692488 C1.77144139,23.365848 1.41018895,23.1618147 1.19482693,22.8259196 C0.979464898,22.4904726 0.940097646,22.0662891 1.08946163,21.6969288 L8.98375362,1.58130558 C9.16322198,1.11151991 9.58468315,0.786944505 10.0524587,0.75890882 L22.6835575,0.00187591847 C23.1038608,-0.0233145612 23.491744,0.206657703 23.6966853,0.603520313 C23.9004687,1.00093655 23.8888901,1.50218508 23.6654231,1.91065327 L16.8792035,14.1019676 L25.8422006,13.930734 C26.3018711,13.9219523 26.7198587,14.2201676 26.9039585,14.6893397 C27.0869005,15.1603303 27.0046924,15.7121794 26.6897544,16.0953846 L6.16436362,39.6594599 C5.93858085,39.9023533 5.62827427,40.0167319 5.31565197,39.9980266 Z M23.5949237,16.2240777 L13.0102852,16.4262919 L14.9132585,13.0076365 L20.8365803,2.36661022 L10.8579169,2.96467193 L3.72773096,21.1329644 L13.1805528,21.2160914 L12.021647,24.2421985 L8.42147381,33.642841 L23.5949237,16.2240777 Z"></path>
        </g>
    </symbol>
    <symbol id="tank" viewBox="0 0 31 44">
        <g fill="#1589EE">
            <path d="M28.1513242,33.1334259 C28.70539,31.7531929 29,30.2753705 29,28.7614508 L29,21.2380842 C29,20.0582043 28.8208923,18.8999572 28.4792735,17.7926389 L2.52067479,17.7926389 C2.17908569,18.899908 2,20.058142 2,21.2380842 L2,28.7614508 C2,30.2753705 2.29461004,31.7531929 2.84884171,33.1334259 L28.1513242,33.1334259 Z M27.1233345,35.1334259 L3.87722862,35.1334259 C4.83521431,36.6379818 6.1347356,37.9611994 7.71714183,39 L23.2860905,39 C24.8670697,37.9611994 26.165794,36.6379818 27.1233345,35.1334259 Z M1.00374942,34.0321044 C0.348612829,32.4167685 0,30.6835457 0,28.906432 L0,21.093085 C0,16.2937128 2.54265344,11.81549 6.80299132,9.11252301 C6.86350138,9.07325954 6.93025236,9.04395085 7,9.0251042 L7,6.70037739 C7,6.31043548 7.30500601,5.99512361 7.68626352,5.99512361 L9.66471766,5.99512361 L9.66471766,0.705253785 C9.66471766,0.315311877 9.97290081,0 10.3509812,0 L20.6458417,0 C21.0261914,0 21.3325591,0.315311877 21.3325591,0.705253785 L21.3325591,5.99512361 L23.3132826,5.99512361 C23.6945401,5.99512361 24,6.31043548 24,6.70037739 L24,9.02495497 C24.0698752,9.04379598 24.1368192,9.07315576 24.1974892,9.11252301 C28.4573466,11.81549 31,16.2941958 31,21.093085 L31,28.906432 C31,30.6835415 30.6513845,32.4166192 29.9962062,34.0318677 C29.9987149,34.0653684 30,34.0993589 30,34.1337565 C30,34.5586307 29.8034677,34.921632 29.5266313,35.066345 C28.3601002,37.3816543 26.5389072,39.4023582 24.200372,40.887477 C24.1391238,40.9276487 24.0711469,40.9572528 24,40.9759849 L24,43.2811669 C23.9995462,43.6783542 23.6941352,44 23.3133926,44 L7.6861536,44 C7.30813379,44 7,43.6783542 7,43.2811669 L7,40.9754511 C6.92972322,40.9566925 6.86257756,40.9272692 6.80010849,40.887477 C4.46152805,39.4033907 2.64016481,37.3826784 1.47350584,35.0670543 C1.19572246,34.9228209 1,34.5593266 1,34.1337565 C1,34.0994399 1.0012696,34.0655286 1.00374942,34.0321044 Z M27.6572376,15.7926389 C26.674474,13.9040561 25.1826586,12.2467711 23.2833199,11 L7.71714183,11 C5.81749669,12.2468116 4.325531,13.9040332 3.34271447,15.7926389 L27.6572376,15.7926389 Z M22,41 L9,41 L9,42 L22,42 L22,41 Z M8.92800112,8.99976678 L21.9280011,8.99976678 L21.9280011,7.13099753 L20.1215372,7.13099753 C19.7767195,7.13099753 19.4956496,6.86072264 19.4956496,6.52697107 L19.4956496,1.99976678 L11.3582829,1.99976678 L11.3582829,6.52737029 C11.3582829,6.86072264 11.0796967,7.13139676 10.7323953,7.13139676 L8.92800112,7.13139676 L8.92800112,8.99976678 Z M15.5,7.54347826 C14.2042842,7.54347826 13.1515152,6.52396202 13.1515152,5.27194635 C13.1515152,4.01993068 14.2042842,3 15.5,3 C16.7935734,3 17.8484848,4.01951624 17.8484848,5.27194635 C17.8484848,6.52396202 16.7931449,7.54347826 15.5,7.54347826 Z M15.5,4.25367342 C14.9181276,4.25367342 14.4472309,4.71038354 14.4472309,5.27194635 C14.4472309,5.83350916 14.9181276,6.29021928 15.5,6.29021928 C16.07973,6.29021928 16.5531975,5.83350916 16.5531975,5.27194635 C16.5531975,4.71038354 16.0793015,4.25367342 15.5,4.25367342 Z" id="Combined-Shape"></path>
        </g>
    </symbol>
    <symbol id="gas" viewBox="0 0 28 40">
        <g fill="#1589EE">
            <path d="M12.8819444,0.00397531268 C12.4091595,0.0443624518 12.022186,0.42316086 11.9421296,0.923935916 C10.6826704,8.74905964 7.93251615,11.8514167 5.28240741,14.8274936 C2.63229867,17.8035705 0,20.81274 0,27.3424312 C0,30.5806575 1.35997193,33.3233371 3.33796296,35.4137849 C5.315954,37.5042328 7.90736178,38.998157 10.5648148,39.9441576 C11.0052542,40.0995356 11.4884576,39.9228462 11.7482779,39.5114093 C12.0080982,39.0999724 11.9813925,38.5537775 11.6828704,38.1736673 C9.18822956,34.9668927 8.56567859,32.7625262 8.62037037,31.0049165 C8.66170148,29.6766857 9.15531452,28.488233 9.72222222,27.2556426 C10.436272,27.848235 11.2583245,28.5493817 11.650463,28.81784 C11.9535023,29.0253017 12.1701461,29.1661125 12.3310185,29.2517839 C12.491891,29.3374549 12.6550926,29.3906458 12.6550926,29.3906458 C12.9564013,29.4921439 13.2844655,29.441027 13.5462963,29.2517839 C13.5462963,29.2517839 14.6913101,28.3966899 15.5717593,26.6134057 C16.1790886,25.3833053 16.6605584,23.6368672 16.7384259,21.4234386 C19.3127947,24.7575523 20.2545648,27.5875279 20.2222222,29.9808094 C20.1753481,33.4494129 18.2249299,36.2869218 16.4143519,38.0695209 C16.0884777,38.3997567 15.9977326,38.9169898 16.1894496,39.351429 C16.3811666,39.7858682 16.8118868,40.0390336 17.2569444,39.978873 C22.8674662,39.1365822 28,33.9008468 28,27.2382848 C28,22.6745823 27.2542356,18.5809753 25.0671296,14.3241192 C22.8800237,10.0672626 19.3023185,5.66262305 13.6597222,0.281699656 C13.4470726,0.0786260612 13.1658074,-0.0218064683 12.8819444,0.00397531268 Z M13.5300926,3.21515883 C18.291671,7.90599219 21.4059253,11.7892358 23.2523148,15.3829417 C25.2673696,19.3049275 25.9259259,22.92561 25.9259259,27.2382848 C25.9259259,31.3385785 23.4162714,34.8705495 20.2060185,36.6461854 C21.3485082,34.8269408 22.2609551,32.630661 22.2962963,30.0155249 C22.3457967,26.3526252 20.6882133,22.1819195 16.2847222,17.5353028 C15.9646572,17.1988517 15.4789865,17.1208576 15.0808912,17.3419788 C14.6827959,17.5631 14.4624508,18.0332491 14.5347222,18.5073366 C15.032501,21.9753928 14.4205284,24.1950826 13.7407407,25.571941 C13.4082729,26.2453299 13.0692862,26.6889839 12.8171296,26.9779188 C12.7931274,26.9618244 12.7944807,26.9609799 12.7685185,26.9432022 C12.2641032,26.5978786 11.3823697,25.9394257 9.99768519,24.7040525 C9.7555875,24.4876122 9.43471688,24.4009141 9.12575137,24.468459 C8.81678586,24.5360039 8.55328797,24.7504546 8.40972222,25.0512072 C7.65255659,26.6733906 6.62123415,28.527234 6.5462963,30.9354844 C6.49691259,32.5225873 6.94869259,34.2963054 7.98842593,36.2990289 C6.79793644,35.5962223 5.69836607,34.7875864 4.7962963,33.8342298 C3.11693096,32.0593856 2.07407407,29.9300662 2.07407407,27.3424312 C2.07407407,21.4067486 4.10844207,19.3474457 6.77314815,16.3549755 C9.20327385,13.6259398 12.0302363,10.0722021 13.5300926,3.21515883 Z"></path>
        </g>
    </symbol>
     <symbol id="water" viewBox="0 0 28 40">
        <g fill="#1589EE">
            <path d="M14,40 C6.28090909,40 0,33.83125 0,26.25 C0,23.9475 0.593090909,21.66625 1.71563636,19.65375 L11.7574545,1.31625 L11.9330909,1.07125 C12.4078182,0.405 13.1778182,0 14,0 C14.8272727,0 15.6010909,0.41 16.0758182,1.08375 L16.2425455,1.31625 L26.2881818,19.65875 C27.4069091,21.67125 28,23.95 28,26.25 C28,33.83125 21.7190909,40 14,40 Z M13.9898182,2.51875 L3.95309091,20.84625 C3.03036364,22.5 2.54545455,24.365 2.54545455,26.25 C2.54545455,32.45375 7.68472727,37.5 14,37.5 C20.3165455,37.5 25.4545455,32.45375 25.4545455,26.25 C25.4545455,24.3675 24.9696364,22.50125 24.052,20.855 L24.0469091,20.8475 L14.0954545,2.67375 L13.9898182,2.51875 Z M14,35 C13.2974545,35 12.7272727,34.44125 12.7272727,33.75 C12.7272727,33.05875 13.2974545,32.5 14,32.5 C17.5089091,32.5 20.3636364,29.69625 20.3636364,26.25 C20.3636364,25.55875 20.9325455,25 21.6363636,25 C22.3401818,25 22.9090909,25.55875 22.9090909,26.25 C22.9090909,31.07375 18.9114545,35 14,35 Z"></path>
        </g>
    </symbol>
    <symbol id="account" viewBox="0 0 32 32">
        <g>
            <rect x="0" y="0" width="32" height="32" rx="4" fill="#1589EE"></rect>
            <path d="M14.1818182,8 L9.09090909,8 C8.47272727,8 8,8.47272727 8,9.09090909 L8,23.6363636 C8,23.8181818 8.18181818,24 8.36363636,24 L9.81818182,24 C10.0363636,24 10.1818182,23.8545455 10.1818182,23.6363636 L10.1818182,21.4545455 C10.1818182,21.2363636 10.3272727,21.0909091 10.5454545,21.0909091 L12.7272727,21.0909091 C12.9454545,21.0909091 13.0909091,21.2363636 13.0909091,21.4545455 L13.0909091,23.6363636 C13.0909091,23.8545455 13.2363636,24 13.4545455,24 L14.5454545,24 C14.9454545,24 15.2727273,23.6727273 15.2727273,23.2727273 L15.2727273,9.09090909 C15.2727273,8.47272727 14.8,8 14.1818182,8 Z M10.9090909,19.4545455 C10.9090909,19.5636364 10.8363636,19.6363636 10.7272727,19.6363636 L9.63636364,19.6363636 C9.52727273,19.6363636 9.45454545,19.5636364 9.45454545,19.4545455 L9.45454545,17.6363636 C9.45454545,17.5272727 9.52727273,17.4545455 9.63636364,17.4545455 L10.7272727,17.4545455 C10.8363636,17.4545455 10.9090909,17.5272727 10.9090909,17.6363636 L10.9090909,19.4545455 Z M10.9090909,15.8181818 C10.9090909,15.9272727 10.8363636,16 10.7272727,16 L9.63636364,16 C9.52727273,16 9.45454545,15.9272727 9.45454545,15.8181818 L9.45454545,14 C9.45454545,13.8909091 9.52727273,13.8181818 9.63636364,13.8181818 L10.7272727,13.8181818 C10.8363636,13.8181818 10.9090909,13.8909091 10.9090909,14 L10.9090909,15.8181818 Z M10.9090909,12.1818182 C10.9090909,12.2909091 10.8363636,12.3636364 10.7272727,12.3636364 L9.63636364,12.3636364 C9.52727273,12.3636364 9.45454545,12.2909091 9.45454545,12.1818182 L9.45454545,10.3636364 C9.45454545,10.2545455 9.52727273,10.1818182 9.63636364,10.1818182 L10.7272727,10.1818182 C10.8363636,10.1818182 10.9090909,10.2545455 10.9090909,10.3636364 L10.9090909,12.1818182 Z M13.8181818,19.4545455 C13.8181818,19.5636364 13.7454545,19.6363636 13.6363636,19.6363636 L12.5454545,19.6363636 C12.4363636,19.6363636 12.3636364,19.5636364 12.3636364,19.4545455 L12.3636364,17.6363636 C12.3636364,17.5272727 12.4363636,17.4545455 12.5454545,17.4545455 L13.6363636,17.4545455 C13.7454545,17.4545455 13.8181818,17.5272727 13.8181818,17.6363636 L13.8181818,19.4545455 Z M13.8181818,15.8181818 C13.8181818,15.9272727 13.7454545,16 13.6363636,16 L12.5454545,16 C12.4363636,16 12.3636364,15.9272727 12.3636364,15.8181818 L12.3636364,14 C12.3636364,13.8909091 12.4363636,13.8181818 12.5454545,13.8181818 L13.6363636,13.8181818 C13.7454545,13.8181818 13.8181818,13.8909091 13.8181818,14 L13.8181818,15.8181818 Z M13.8181818,12.1818182 C13.8181818,12.2909091 13.7454545,12.3636364 13.6363636,12.3636364 L12.5454545,12.3636364 C12.4363636,12.3636364 12.3636364,12.2909091 12.3636364,12.1818182 L12.3636364,10.3636364 C12.3636364,10.2545455 12.4363636,10.1818182 12.5454545,10.1818182 L13.6363636,10.1818182 C13.7454545,10.1818182 13.8181818,10.2545455 13.8181818,10.3636364 L13.8181818,12.1818182 Z M22.9090909,11.6363636 L17.8181818,11.6363636 C17.2,11.6363636 16.7272727,12.1090909 16.7272727,12.7272727 L16.7272727,23.6363636 C16.7272727,23.8181818 16.9090909,24 17.0909091,24 L18.5454545,24 C18.7636364,24 18.9090909,23.8545455 18.9090909,23.6363636 L18.9090909,21.4545455 C18.9090909,21.2363636 19.0545455,21.0909091 19.2727273,21.0909091 L21.4545455,21.0909091 C21.6727273,21.0909091 21.8181818,21.2363636 21.8181818,21.4545455 L21.8181818,23.6363636 C21.8181818,23.8545455 21.9636364,24 22.1818182,24 L23.2727273,24 C23.6727273,24 24,23.6727273 24,23.2727273 L24,12.7272727 C24,12.1090909 23.5272727,11.6363636 22.9090909,11.6363636 Z M19.6363636,19.4545455 C19.6363636,19.5636364 19.5636364,19.6363636 19.4545455,19.6363636 L18.3636364,19.6363636 C18.2545455,19.6363636 18.1818182,19.5636364 18.1818182,19.4545455 L18.1818182,17.6363636 C18.1818182,17.5272727 18.2545455,17.4545455 18.3636364,17.4545455 L19.4545455,17.4545455 C19.5636364,17.4545455 19.6363636,17.5272727 19.6363636,17.6363636 L19.6363636,19.4545455 Z M19.6363636,15.8181818 C19.6363636,15.9272727 19.5636364,16 19.4545455,16 L18.3636364,16 C18.2545455,16 18.1818182,15.9272727 18.1818182,15.8181818 L18.1818182,14 C18.1818182,13.8909091 18.2545455,13.8181818 18.3636364,13.8181818 L19.4545455,13.8181818 C19.5636364,13.8181818 19.6363636,13.8909091 19.6363636,14 L19.6363636,15.8181818 Z M22.5454545,19.4545455 C22.5454545,19.5636364 22.4727273,19.6363636 22.3636364,19.6363636 L21.2727273,19.6363636 C21.1636364,19.6363636 21.0909091,19.5636364 21.0909091,19.4545455 L21.0909091,17.6363636 C21.0909091,17.5272727 21.1636364,17.4545455 21.2727273,17.4545455 L22.3636364,17.4545455 C22.4727273,17.4545455 22.5454545,17.5272727 22.5454545,17.6363636 L22.5454545,19.4545455 Z M22.5454545,15.8181818 C22.5454545,15.9272727 22.4727273,16 22.3636364,16 L21.2727273,16 C21.1636364,16 21.0909091,15.9272727 21.0909091,15.8181818 L21.0909091,14 C21.0909091,13.8909091 21.1636364,13.8181818 21.2727273,13.8181818 L22.3636364,13.8181818 C22.4727273,13.8181818 22.5454545,13.8909091 22.5454545,14 L22.5454545,15.8181818 Z" fill="#FFFFFF"></path>
        </g>
    </symbol>
    <symbol id="fire" viewBox="0 0 20 30">
        <g fill="#FF2953">
            <path d="M15.0110417,15.3333333 C15.0110417,15.3333333 15.2893883,18.2266667 12.741446,19.72 C12.741446,19.72 17.7302742,11.096 7.06745685,6 C7.06745685,6 8.56624644,8.22133333 5.05479655,10.8906667 C2.12145121,13.112 -4.858626,20.448 5.39737703,24.6666667 C5.39737703,24.6666667 1.24358874,19.9253333 6.40370718,17.312 C6.40370718,17.312 4.43386944,20.0746667 7.9667306,22.408 C10.065036,20.504 9.50834275,19.5333333 9.50834275,19.5333333 C9.50834275,19.5333333 12.5487445,21.6613333 10.3005601,24.6666667 C10.3005601,24.6666667 18.8436608,22.8746667 15.0110417,15.3333333 Z" id="Path"></path>
        </g>
    </symbol>
    <symbol id="hottub" viewBox="0 0 30 34">
        <g>
            <path d="M28,12.4943559 L28,25 L28,25 C20.32,28.2 11.68,28.2 4,25 L4,25 L4,12.5 L28,12.4943559 Z" fill="#1589EE"></path>
            <path d="M8.22182541,10.1715729 C6.23121694,10.8954305 5,11.8954305 5,13 C5,15.209139 9.92486775,17 16,17 C22.0751322,17 27,15.209139 27,13 C27,11.7791425 25.4958941,10.6860315 23.1247668,9.95233405" stroke="#1589EE" stroke-width="2" fill="#FFFFFF" stroke-linecap="round"></path>
            <path d="M10.6233332,5.5315542 C10.8821588,5.04367329 11.4874839,4.85798721 11.9753649,5.11681274 C12.4632458,5.37563828 12.6489318,5.98096345 12.3901063,6.46884437 L12.238084,6.75540337 C11.8873157,7.41659459 11.9264725,8.21671926 12.3401252,8.84050098 L12.4645238,9.02809203 C13.2272391,10.1782544 13.1534321,11.6907575 12.2823562,12.7611943 C11.9337652,13.1895664 11.303912,13.2542418 10.8755398,12.9056508 C10.4471677,12.5570597 10.3824923,11.9272066 10.7310833,11.4988344 C11.0496878,11.1073118 11.0766834,10.5540992 10.7977129,10.1334161 L10.6733143,9.94582508 C9.85443683,8.71097104 9.77692108,7.12702404 10.4713109,5.8181132 L10.6233332,5.5315542 Z" fill="#1589EE"></path>
            <path d="M14.5893362,2.66473438 C14.7746487,2.14446744 15.346634,1.87293328 15.8669009,2.05824586 C16.3871678,2.24355845 16.658702,2.81554367 16.4733894,3.33581061 L16.2983324,3.827285 C15.8549338,5.07213097 15.9074163,6.43984282 16.4449063,7.64704964 L16.5965849,7.98772096 C17.25803,9.47333197 17.1886339,11.1824578 16.4089234,12.6095532 C16.1441219,13.0942166 15.5365605,13.2724498 15.0518971,13.0076482 C14.5672338,12.7428466 14.3890006,12.1352852 14.6538021,11.6506219 C15.1345037,10.7707992 15.1772872,9.7171012 14.7694978,8.80120293 L14.6178193,8.46053161 C13.8714329,6.78414175 13.7985529,4.8848663 14.4142791,3.15620877 L14.5893362,2.66473438 Z" fill="#1589EE"></path>
            <path d="M18.6233332,5.5315542 C18.8821588,5.04367329 19.4874839,4.85798721 19.9753649,5.11681274 C20.4632458,5.37563828 20.6489318,5.98096345 20.3901063,6.46884437 L20.238084,6.75540337 C19.8873157,7.41659459 19.9264725,8.21671926 20.3401252,8.84050098 L20.4645238,9.02809203 C21.2272391,10.1782544 21.1534321,11.6907575 20.2823562,12.7611943 C19.9337652,13.1895664 19.303912,13.2542418 18.8755398,12.9056508 C18.4471677,12.5570597 18.3824923,11.9272066 18.7310833,11.4988344 C19.0496878,11.1073118 19.0766834,10.5540992 18.7977129,10.1334161 L18.6733143,9.94582508 C17.8544368,8.71097104 17.7769211,7.12702404 18.4713109,5.8181132 L18.6233332,5.5315542 Z" fill="#1589EE"></path>
            <circle fill="#1589EE" cx="11.5" cy="2.5002725" r="1"></circle>
            <circle fill="#1589EE" cx="22.5" cy="7.5002725" r="1"></circle>
            <circle fill="#1589EE" cx="7.5" cy="8.5002725" r="1"></circle>
            <path d="M23,17.7845354 L23,14 L25,14 L25,27 L23,27 L23,23.5409264 L17.6625164,24.6260911 L17.4836426,22.998282 L23,21.8767505 L23,19.4487113 L17.6625164,20.533876 L17.4836426,18.906067 L23,17.7845354 Z M17,15 L19,15 L19,28 L17,28 L17,15 Z" fill="#FFFFFF"></path>
        </g>
    </symbol>
    <symbol id="dollarS" viewBox="0 0 51 51">
        <g>
            <path d="M10.2555408,-4.14336123e-16 L40.7444592,4.14336123e-16 C44.3105342,-2.4074122e-16 45.6036791,0.371302445 46.9073828,1.06853082 C48.2110865,1.76575919 49.2342408,2.78891348 49.9314692,4.09261719 C50.6286976,5.39632089 51,6.68946584 51,10.2555408 L51,40.7444592 C51,44.3105342 50.6286976,45.6036791 49.9314692,46.9073828 C49.2342408,48.2110865 48.2110865,49.2342408 46.9073828,49.9314692 C45.6036791,50.6286976 44.3105342,51 40.7444592,51 L10.2555408,51 C6.68946584,51 5.39632089,50.6286976 4.09261719,49.9314692 C2.78891348,49.2342408 1.76575919,48.2110865 1.06853082,46.9073828 C0.371302445,45.6036791 1.60494146e-16,44.3105342 -2.76224082e-16,40.7444592 L2.76224082e-16,10.2555408 C-1.60494146e-16,6.68946584 0.371302445,5.39632089 1.06853082,4.09261719 C1.76575919,2.78891348 2.78891348,1.76575919 4.09261719,1.06853082 C5.39632089,0.371302445 6.68946584,2.4074122e-16 10.2555408,-4.14336123e-16 Z" fill="#FFFFFF" fill-rule="nonzero"></path>
            <path d="M26.8312488,33.8864778 L26.8312488,35.9090909 L24.1778981,35.9090909 L24.1778981,33.9915487 C23.0444222,33.9215011 22.0612325,33.7288732 21.2282994,33.4136592 C20.3953664,33.0984452 19.6526073,32.6694104 19,32.1265418 L20.5971626,30.1301964 C21.2497699,30.5855056 21.9023675,30.9182265 22.5549748,31.1283691 C23.2075821,31.3385118 23.9546346,31.4435815 24.7961546,31.4435815 C27.1489757,31.4435815 28.3253687,30.6380467 28.3253687,29.0269529 C28.3253687,28.5015963 28.2051533,28.0856952 27.9647191,27.7792371 C27.7242848,27.472779 27.355052,27.2188605 26.8570095,27.0174737 C26.3589671,26.816087 25.6376751,26.6015696 24.6931118,26.373915 C22.9070286,25.9186059 21.6018335,25.3275885 20.7774874,24.6008451 C19.9531413,23.8741017 19.5409744,22.8452937 19.5409744,21.5143901 C19.5409744,20.2535341 19.9660215,19.2247261 20.8161284,18.4279351 C21.6662354,17.6311442 22.786814,17.1364407 24.1778981,16.94381 L24.1778981,15 L26.8312488,15 L26.8312488,16.9175423 C28.5658104,17.0926611 30.1114362,17.661789 31.4681725,18.6249429 L30.025574,20.6212883 C29.3042712,20.2010029 28.6087396,19.8814157 27.9389584,19.6625171 C27.2691772,19.4436185 26.5135379,19.3341709 25.6720179,19.3341709 C23.6798482,19.3341709 22.6837782,20.0083685 22.6837782,21.3567839 C22.6837782,21.8296049 22.7911134,22.201727 23.0057868,22.4731613 C23.2204603,22.7445955 23.5553459,22.9722467 24.0104536,23.1561215 C24.4655614,23.3399964 25.1482127,23.5370021 26.0584282,23.7471448 C27.8788592,24.1499183 29.2484554,24.7496915 30.1672578,25.5464824 C31.0860602,26.3432734 31.5454545,27.4771512 31.5454545,28.9481498 C31.5454545,30.349101 31.1075272,31.4654671 30.2316595,32.2972819 C29.3557918,33.1290966 28.2223329,33.6588233 26.8312488,33.8864778 Z" fill="#1589EE"></path>
        </g>
    </symbol>
    <symbol id="paymentSchedule" viewBox="0 0 80 80">
       <g stroke-width="6" fill="none">
            <circle stroke="#4BC076" fill="#4BC076" cx="40" cy="40" r="37"></circle>
            <polyline stroke="#FFFFFF" points="22.4 40.7542857 34.4307692 52.8 59.2 28"></polyline>
        </g>
    </symbol>
    <symbol id="peakUsage" viewBox="0 0 30 20">
        <g fill="#1589EE" stroke-width="1">
            <path d="M25.7122973,2.54826832 L22.4105505,2.54826832 L22.4105505,0 L30,0 L30,7.64480496 L27.4701835,7.64480496 L27.4701835,4.3830647 L17.3006422,14.9975391 L11.9706035,9.47300375 L1.8142203,20 L5.15143483e-14,18.2240248 L11.9706035,5.81660617 L17.2942991,11.3345669 L25.7122973,2.54826832 Z" id="Combined-Shape" fill-rule="nonzero"></path>
        </g>
    </symbol>
    <symbol id="speaker" viewBox="0 0 30 30">
        <g fill="#DDDBDA">
            <path d="M7.90199633,23.2257143 L7.42399674,22.84 C6.90922795,22.4542857 6.90922795,21.6828571 6.90922795,21.2971429 L6.90922795,20.1785714 C6.90922795,19.87 6.65184355,19.6 6.35768996,19.6 L4.15153799,19.6 C3.8573844,19.6 3.6,19.87 3.6,20.1785714 L3.6,23.1485714 C3.6,24.19 4.18830719,25 5.10753718,25 L6.90922795,25 C7.97553473,25 8.04907313,24.2285714 8.04907313,24.2285714 C8.04907313,24.2285714 8.23291913,23.5342857 7.90199633,23.2257143 L7.90199633,23.2257143 Z M16.1924686,12.9138007 L16.1924686,7.86963108 C16.1924686,6.98598092 15.0627615,6.72824963 14.460251,7.31734973 L11.1087866,10.4101253 C10.58159,10.8519503 9.90376569,11.0360441 9.22594142,11.0360441 L3.50209205,11.0360441 C1.54393305,11.0728629 0,12.7297069 0,14.6442822 L0,14.7179198 C0,16.6324951 1.54393305,18.0684266 3.50209205,18.0684266 L9.22594142,18.0684266 C9.94142259,18.0684266 10.6192469,18.3629766 11.1464435,18.8048017 L14.460251,21.9712147 C15.0627615,22.5603149 16.1924686,22.3394023 16.1924686,21.4557522 L16.1924686,16.4484013 C17.3221757,16.4484013 18,15.6752074 18,14.681101 C18,13.6869946 17.3221757,12.9138007 16.1924686,12.9138007 L16.1924686,12.9138007 Z" id="Mask"></path>
        </g>
    </symbol>
    <symbol id="window" viewBox="0 0 26 20">
        <g stroke="none" stroke-width="1" fill="none" fill-rule="evenodd">
            <g transform="translate(-2857.000000, -769.000000)">
                <g transform="translate(2822.000000, 126.000000)">
                    <g transform="translate(16.000000, 550.000000)">
                        <g transform="translate(0.000000, 66.000000)">
                            <g transform="translate(0.000000, 5.000000)">
                                <g transform="translate(16.000000, 17.000000)">
                                    <g fill-rule="evenodd" transform="translate(4.000000, 6.000000)">
                                        <rect stroke="#1589EE" stroke-width="2" fill="#1589EE" fill-rule="nonzero" x="0" y="0" width="24" height="18" rx="1"></rect>
                                        <rect stroke="#FFFFFF" fill-rule="nonzero" x="0.5" y="0.5" width="23" height="17" rx="1"></rect>
                                        <path d="M2.5,6.5 L7.5,2.5" stroke="#FFFFFF" stroke-linecap="round" fill-rule="nonzero"></path>
                                        <path d="M16.5,14.5 L19,12.5" stroke="#FFFFFF" stroke-linecap="round" fill-rule="nonzero"></path>
                                        <path d="M5,7.5 L7.5,5.5" stroke="#FFFFFF" stroke-linecap="round" fill-rule="nonzero"></path>
                                    </g>
                                    <path d="M16,6.5 L16,24" stroke="#FFFFFF" fill-rule="nonzero"></path>
                                    <path d="M27.4782609,15.5 L4.52173913,15.5" stroke="#FFFFFF" fill-rule="nonzero"></path>
                                </g>
                            </g>
                        </g>
                    </g>
                </g>
            </g>
        </g>
    </symbol>
</svg>