<?xml version="1.0" encoding="UTF-8"?>
<svg width="24px" height="24px" viewBox="0 0 24 24" version="1.1" xmlns="http://www.w3.org/2000/svg" xmlns:xlink="http://www.w3.org/1999/xlink">
    <title>Icon and Color Copy 4</title>
    <defs>
        <path d="M23.9510204,4.2122449 C22.922449,2.20408163 20.3265306,-1.51836735 15.5265306,0.685714286 C12.5387755,2.05714286 10.8734694,2.84081633 10.8734694,2.84081633 L6.56326531,4.70204082 C5.33877551,5.28979592 2.69387755,4.45714286 1.1755102,3.91836735 C0.734693878,3.77142857 0.342857143,4.2122449 0.53877551,4.65306122 C1.56734694,6.66122449 4.16326531,10.3836735 8.96326531,8.17959184 C11.9510204,6.80816327 17.9265306,4.2122449 17.9265306,4.2122449 C19.1510204,3.6244898 21.7959184,4.45714286 23.3142857,4.99591837 C23.755102,5.09387755 24.1469388,4.65306122 23.9510204,4.2122449 Z M13.6163265,10.4816327 C13.077551,10.7755102 10.922449,11.755102 10.922449,11.755102 L8.76734694,12.6857143 C7.68979592,13.2734694 5.3877551,12.4897959 4.01632653,11.9510204 C3.6244898,11.755102 3.28163265,12.244898 3.47755102,12.6367347 C4.35918367,14.5959184 6.66122449,18.122449 10.8734694,15.9673469 C13.5183673,14.644898 15.722449,13.7632653 15.722449,13.7632653 C16.8,13.1755102 19.1020408,13.9591837 20.4734694,14.4979592 C20.8653061,14.644898 21.2081633,14.2040816 21.0122449,13.7632653 C20.1306122,11.8530612 17.8285714,8.32653061 13.6163265,10.4816327 L13.6163265,10.4816327 Z M12.0489796,19.1510204 C11.6081633,19.3959184 10.8734694,19.8367347 10.8734694,19.8367347 C10.0408163,20.3755102 8.32653061,19.6897959 7.29795918,19.2 C7.00408163,19.0530612 6.75918367,19.4938776 6.90612245,19.8857143 C7.54285714,21.6489796 9.25714286,24.8326531 12.4408163,22.8734694 C13.6163265,22.1387755 13.6163265,22.1877551 13.6163265,22.1877551 C14.4979592,21.7469388 16.1632653,22.3346939 17.1918367,22.8244898 C17.4857143,22.9714286 17.7306122,22.5306122 17.5836735,22.1387755 C16.9469388,20.3755102 15.3306122,17.3387755 12.0489796,19.1510204 L12.0489796,19.1510204 Z" id="path-1"></path>
    </defs>
    <g id="Iconos" stroke="none" stroke-width="1" fill="none" fill-rule="evenodd">
        <g id="Icon-and-Color-Copy-4" transform="translate(0.000000, 0.244898)">
            <mask id="mask-2" fill="white">
                <use xlink:href="#path-1"></use>
            </mask>
            <use id="🎨-Icon-Color" fill="#0070D2" xlink:href="#path-1"></use>
        </g>
    </g>
</svg>