<?xml version="1.0" encoding="UTF-8"?>
<svg width="18px" height="24px" viewBox="0 0 18 24" version="1.1" xmlns="http://www.w3.org/2000/svg" xmlns:xlink="http://www.w3.org/1999/xlink">
    <title>Icon and Color Copy 3</title>
    <defs>
        <path d="M6.75918367,14.3020408 L4.89795918,22.922449 C4.8,23.4122449 5.43673469,23.755102 5.73061224,23.3632653 L16.0163265,10.6285714 C16.3102041,10.2857143 16.0653061,9.79591837 15.6734694,9.79591837 L10.1877551,9.79591837 C9.79591837,9.79591837 9.55102041,9.35510204 9.74693878,9.06122449 L14.5959184,1.12653061 C14.8897959,0.636734694 14.5469388,0 13.9591837,0 L5.28979592,0 C4.75102041,0 4.31020408,0.342857143 4.11428571,0.832653061 L0.0489795918,12.7346939 C-0.0979591837,13.2244898 0.244897959,13.7142857 0.734693878,13.7142857 L6.31836735,13.7142857 C6.6122449,13.7142857 6.85714286,14.0081633 6.75918367,14.3020408 Z" id="path-1"></path>
    </defs>
    <g id="Iconos" stroke="none" stroke-width="1" fill="none" fill-rule="evenodd">
        <g id="Icon-and-Color-Copy-3" transform="translate(0.918367, 0.000000)">
            <mask id="mask-2" fill="white">
                <use xlink:href="#path-1"></use>
            </mask>
            <use id="🎨-Icon-Color" fill="#0070D2" xlink:href="#path-1"></use>
        </g>
    </g>
</svg>