<?xml version="1.0" encoding="UTF-8"?>
<svg width="24px" height="24px" viewBox="0 0 24 24" version="1.1" xmlns="http://www.w3.org/2000/svg" xmlns:xlink="http://www.w3.org/1999/xlink">
    <title>Icon and Color Copy 2</title>
    <defs>
        <path d="M12.048,12 C12.048,12 16.464,17.424 16.464,19.44 C16.464,19.584 16.512,19.728 16.512,19.872 C16.512,21.408 15.408,22.608 14.064,22.608 C13.296,22.608 12.624,22.272 12.192,21.648 C11.76,22.368 11.04,22.8 10.224,22.8 C8.88,22.8 7.776,21.552 7.776,20.064 C7.776,20.064 7.632,18.576 8.784,16.704 C9.864,14.949 11.534625,12.434625 11.7392344,12.1271836 L11.76,12.096 L11.76,16.176 L11.472,17.568 C11.424,17.616 11.424,17.712 11.424,17.76 C11.424,18.096 11.712,18.384 12.048,18.384 C12.384,18.384 12.672,18.096 12.672,17.76 C12.672,17.664 12.624,17.616 12.624,17.568 L12.624,17.568 L12.048,16.176 Z M2.112,10.224 C2.112,10.224 3.408,9.552 5.616,9.984 C5.961,10.0515 6.3294375,10.1272031 6.70556543,10.2068979 L7.15960254,10.3041782 C7.23555469,10.3206211 7.3115625,10.3371563 7.3875,10.35375 L7.84127344,10.4537461 C9.494625,10.821 10.992,11.184 10.992,11.184 L10.992,11.184 L7.152,12.624 L5.712,12.768 C5.664,12.768 5.568,12.816 5.52,12.816 C5.184,12.912 4.992,13.296 5.136,13.632 C5.232,13.968 5.616,14.16 5.952,14.016 C6,13.968 6.048,13.968 6.096,13.92 L6.096,13.92 L7.2,12.912 L7.344,12.864 L11.088,11.472 C11.088,11.472 7.584,17.52 5.664,18.192 C5.568,18.24 5.424,18.336 5.28,18.384 C3.84,18.912 2.352,18.288 1.872,17.04 C1.632,16.32 1.728,15.552 2.16,14.928 C1.344,14.736 0.672,14.208 0.384,13.44 C-0.048,12.192 0.72,10.752 2.112,10.224 Z M21.888,10.224 C23.28,10.752 24.048,12.192 23.616,13.44 C23.328,14.208 22.656,14.736 21.84,14.928 C22.272,15.552 22.368,16.32 22.128,17.04 C21.648,18.288 20.16,18.912 18.72,18.384 C18.576,18.336 18.432,18.24 18.336,18.192 C16.416,17.52 12.912,11.472 12.912,11.472 L16.656,12.864 L16.8,12.912 L17.904,13.92 C17.952,13.968 18,13.968 18.048,14.016 C18.384,14.16 18.768,13.968 18.864,13.632 C19.008,13.296 18.816,12.912 18.48,12.816 C18.432,12.816 18.336,12.768 18.288,12.768 L16.848,12.624 L13.008,11.184 C13.008,11.184 14.505375,10.821 16.1587266,10.4537461 L16.6125,10.35375 C16.6884375,10.3371563 16.7644453,10.3206211 16.8403975,10.3041782 L17.2944346,10.2068979 C17.6705625,10.1272031 18.039,10.0515 18.384,9.984 C20.592,9.552 21.888,10.224 21.888,10.224 Z M6.384,0.72 C7.44,-0.096 9.024,0.24 9.936,1.44 C9.936,1.44 10.944,2.544 11.136,4.752 C11.328,6.96 11.52,10.224 11.52,10.224 L11.52,10.224 L9.072,6.912 L8.544,5.568 C8.496,5.52 8.496,5.472 8.448,5.424 C8.208,5.136 7.824,5.088 7.536,5.28 C7.248,5.52 7.2,5.904 7.392,6.192 C7.44,6.24 7.488,6.288 7.536,6.336 L7.536,6.336 L8.832,7.104 L8.928,7.2 L11.328,10.416 C11.328,10.416 4.512,8.736 3.312,7.104 C3.216,7.008 3.12,6.864 3.024,6.768 C2.16,5.568 2.304,3.936 3.36,3.12 C3.984,2.688 4.752,2.592 5.472,2.832 C5.424,2.016 5.712,1.2 6.384,0.72 Z M17.424,0.72 C18.096,1.2 18.384,2.016 18.336,2.832 C19.056,2.64 19.824,2.736 20.4,3.168 C21.456,3.984 21.6,5.616 20.736,6.816 C20.64,6.912 20.544,7.056 20.448,7.152 C19.296,8.736 12.48,10.368 12.48,10.368 L14.88,7.152 L14.976,7.056 L16.272,6.288 L16.416,6.144 L16.416,6.144 C16.608,5.856 16.56,5.472 16.272,5.232 C15.984,5.04 15.6,5.088 15.36,5.376 C15.312,5.424 15.312,5.472 15.264,5.52 L14.736,6.912 L12.288,10.224 C12.288,10.224 12.48,6.96 12.672,4.752 C12.864,2.544 13.872,1.44 13.872,1.44 C14.784,0.24 16.368,-0.096 17.424,0.72 Z" id="path-1"></path>
    </defs>
    <g id="Iconos" stroke="none" stroke-width="1" fill="none" fill-rule="evenodd">
        <g id="Icon-and-Color-Copy-2" transform="translate(0.000000, 0.480000)">
            <mask id="mask-2" fill="white">
                <use xlink:href="#path-1"></use>
            </mask>
            <use id="🎨-Icon-Color" fill="#0070D2" xlink:href="#path-1"></use>
        </g>
    </g>
</svg>